<svg xmlns="http://www.w3.org/2000/svg" width="512" height="512" viewBox="0 0 511 511">
  <rect x="0" y="0" width="512" height="512" fill="white"/>
  <path d="
    M 256,0
    L 35,128
    L 35,384
    L 256,511
    L 477,384
    L 477,128
    Z
    M 256,30
    L 452,143
    L 452,369
    L 256,481
    L 60,369
    L 60,143
    Z
    M 238,70
    L 103,148
    L 238,226
    L 238,187
    L 274,187
    L 274,226
    L 409,148
    L 274,70
    L 274,109
    L 238,109
    Z
    M  85,179
    L 85,354
    L 238,441
    L 238,391
    L 162,347
    L 162,322
    L 238,366
    L 238,341
    L 162,297
    L 162,272
    L 238,316
    L 238,266
    Z
    M 366,214
    L 349,239
    L 335,231
    L 274,266
    L 274,337
    L 288,345
    L 274,370
    L 274,441
    L 335,406
    L 352,381
    L 366,389
    L 427,354
    L 427,283
    L 413,275
    L 427,250
    L 427,179
    Z"
    style="fill:black;"/>
</svg>
