<svg version="1.1" xmlns="http://www.w3.org/2000/svg" xmlns:xlink="http://www.w3.org/1999/xlink" width="100%" height="100%" viewBox="0 0 512 512">
  <filter id="gloss">
    <feGaussianBlur stdDeviation="2" in="SourceAlpha" result="Blur01"/>
    <feOffset in="Blur01" dx="1" dy="1" result="Blur02"/>
    <feSpecularLighting in="Blur01" surfaceScale="1" specularConstant="0.55" 
                      specularExponent="10" lighting-color="#ddd"
                      result="Texture01">
      <fePointLight x="-150" y="-210" z="150"/>
    </feSpecularLighting>
    <feComposite in="Texture01" in2="SourceAlpha" operator="in" result="Texture02"/>
    <feComposite in="Texture02" in2="SourceGraphic" operator="arithmetic" 
               k1="0" k2="1" k3="1" k4="0" result="Mater01"/>
    <feMerge>
      <feMergeNode in="Blur02"/>
      <feMergeNode in="Mater01"/>
    </feMerge>
  </filter>
  
  <path d="
    M256,0  L35,128  L35,384  L256,511  L477,384  L477,128  Z
    M256,30  L452,143  L452,369  L256,481  L60,369  L60,143  Z
    M238,70  L103,148  L238,226  L238,187  L274,187  L274,226  L409,148  L274,70  L274,109  L238,109  Z
    M85,179  L85,354  L238,441  L238,391  L162,347  L162,322  L238,366  L238,341  L162,297  L162,272  L238,316  L238,266  Z
    M366,214  L349,239  L335,231  L274,266  L274,337  L288,345  L274,370  L274,441  L335,406  L352,381  L366,389  L427,354  L427,283  L413,275  L427,250  L427,179  Z"
    style="black;" filter="url(#gloss)"/>
</svg>